<svg xmlns="http://www.w3.org/2000/svg" width="1024" height="1024" xmlns:v="https://vecta.io/nano"><path d="M655.693 415.068c6.263 0 11.634-2.163 16.113-6.49s6.718-9.577 6.718-15.752-2.239-11.467-6.718-15.879-9.85-6.617-16.113-6.617H368.307c-6.267 0-11.638 2.206-16.116 6.617s-6.716 9.704-6.716 15.879 2.239 11.425 6.716 15.752 9.849 6.49 16.116 6.49h287.386zm0 119.301c6.263 0 11.634-2.164 16.113-6.493s6.718-9.598 6.718-15.808c0-6.136-2.239-11.409-6.718-15.82s-9.85-6.617-16.113-6.617H368.307c-6.267 0-11.638 2.206-16.116 6.617s-6.716 9.685-6.716 15.82c0 6.21 2.239 11.48 6.716 15.808s9.849 6.493 16.116 6.493h287.386zM556.346 653.67c6.247 0 11.603-2.206 16.066-6.619s6.695-9.705 6.695-15.876-2.232-11.425-6.695-15.752-9.819-6.49-16.066-6.49H368.296c-6.247 0-11.613 2.163-16.096 6.49s-6.725 9.577-6.725 15.752 2.242 11.463 6.725 15.876 9.848 6.619 16.096 6.619h188.049z"/></svg>