<svg xmlns="http://www.w3.org/2000/svg" width="1024" height="1024" xmlns:v="https://vecta.io/nano"><path d="M229.747 409.291c20.74 0 31.11-10.495 31.11-31.484V306.58c0-15.326 3.87-26.778 11.611-34.354s18.939-11.364 33.595-11.364h72.834c20.99 0 31.484-10.391 31.484-31.174 0-20.569-10.495-30.853-31.484-30.853h-76.473c-34.104 0-59.895 8.643-77.372 25.93s-26.216 42.744-26.216 76.372v76.67c0 20.99 10.304 31.484 30.912 31.484zm564.301 0c20.743 0 31.115-10.495 31.115-31.484v-76.67c0-33.627-8.729-59.085-26.187-76.372s-43.26-25.93-77.407-25.93h-76.724c-20.819 0-31.228 10.284-31.228 30.853 0 20.783 10.409 31.174 31.228 31.174h72.829c14.485 0 25.683 3.788 33.595 11.364s11.867 19.027 11.867 34.354v71.227c0 20.99 10.304 31.484 30.912 31.484zM378.896 825.164c20.99 0 31.484-10.304 31.484-30.912 0-20.743-10.495-31.115-31.484-31.115h-72.834c-14.656 0-25.854-3.798-33.595-11.394s-11.611-19.057-11.611-34.383v-71.227c0-20.99-10.37-31.484-31.11-31.484-20.608 0-30.912 10.495-30.912 31.484v76.473c0 33.762 8.739 59.296 26.216 76.601s43.268 25.958 77.372 25.958h76.473zm342.673 0c34.147 0 59.949-8.653 77.407-25.958s26.187-42.839 26.187-76.601v-76.473c0-20.99-10.372-31.484-31.115-31.484-20.608 0-30.912 10.495-30.912 31.484v71.227c0 15.326-3.956 26.788-11.867 34.383s-19.11 11.394-33.595 11.394h-72.829c-20.819 0-31.228 10.372-31.228 31.115 0 20.608 10.409 30.912 31.228 30.912h76.724z"/></svg>